<svg width="86" height="20" viewBox="0 0 86 20" fill="none" xmlns="http://www.w3.org/2000/svg">
<path fill-rule="evenodd" clip-rule="evenodd" d="M72.5228 7.76531C74.836 7.01122 76.6161 6.28384 76.7458 3.51611C76.8235 2.02154 76.1738 0.670209 74.6404 0.280299C72.366 -0.304809 70.2872 1.81372 70.9889 4.03567C71.2618 4.91892 72.0149 5.37438 72.6782 5.93278L72.5228 7.76531ZM1.49457 6.33629V19.4995H11.0845C17.4649 18.9018 17.6858 11.9232 13.4235 9.57162C17.2439 7.12873 15.9703 0.748383 11.0845 0.51434H1.53342C1.02649 2.45078 0.506932 4.39936 0 6.33629H1.49457ZM7.03004 5.60842V8.27224H8.94026C10.3309 8.28487 10.4994 5.60842 8.94026 5.60842H7.03004ZM7.03004 11.5857V14.2627H8.94026C10.3309 14.2627 10.4994 11.5989 8.94026 11.5857H7.03004ZM30.7971 5.24473H25.0276V13.8733C24.4036 13.8733 23.0265 13.8733 23.0265 12.9895V5.24473H17.192L15.7362 10.8715H17.192V15.6791C17.192 17.6413 19.076 19.4995 20.8823 19.4995H24.0788L25.0276 17.9923V19.4995H30.7971L32.2528 13.8728H30.7971V5.24473ZM40.3996 5.24473H39.8412V3.3214C39.8412 2.8538 39.2047 0.51434 37.697 0.51434H32.1096C32.4606 1.86567 32.8243 3.23011 33.1749 4.58145C34.0975 4.58145 34.0975 4.58145 34.0975 5.24425H32.9797L31.3555 11.4037H34.097V19.4995H39.8408V11.4037H40.3992V19.4995H46.1954V11.4037H47.3782L48.9243 5.24425H46.1959C46.1959 4.58145 46.1959 4.58145 47.0665 4.58145L48.1702 0.51434H42.5444C41.0367 0.51434 40.3996 2.85332 40.3996 3.3214V5.24473ZM53.7969 13.4697H62.0229C62.0739 10.754 61.7889 8.86949 59.6053 7.03745C57.6688 5.40012 55.0312 4.7378 52.6403 5.71233C50.0415 6.76504 48.1308 8.76606 47.8711 11.6377C47.6113 14.3928 48.7936 16.5497 51.0161 18.1089C52.9263 19.4476 55.408 19.6554 57.6431 19.2397C58.5657 19.0576 59.3455 18.7454 60.2025 18.408C60.4623 17.0693 60.7357 15.7305 60.9954 14.3923C57.3838 15.6791 54.4597 14.9386 53.7969 13.4697ZM57.3838 10.5204H52.7054C52.7054 8.03868 57.3838 7.92118 57.3838 10.5204ZM70.2741 2.52847H68.4421V0.51434L62.7246 1.5151V2.52847H62.3871L61.2441 7.77842H62.7246V19.5H68.4421V7.77842H69.0272L70.2741 2.52847ZM76.0961 14.1588C75.7708 15.3411 75.4464 16.5366 75.1211 17.7189C76.2515 18.5507 76.7589 18.8887 78.1491 19.1742C79.1498 19.3694 80.2414 19.5121 81.2674 19.3951C83.165 19.1616 84.6197 18.2259 85.2048 16.3933C85.4515 15.5878 85.335 14.4574 85.0096 13.6907C84.7241 13.0021 84.1521 12.4433 83.567 12.0145C82.9173 11.5464 82.2419 11.3129 81.5136 11.0138C81.1115 10.8448 80.5784 10.8054 80.6041 10.2597C80.6041 10.1169 80.656 10.0392 80.7862 9.97367C81.6048 9.58376 82.6182 10.0256 83.3456 10.3767C83.7486 9.23318 84.1652 8.08967 84.5673 6.94664C83.6578 6.32269 82.995 5.81624 81.9166 5.50402C81.0591 5.24425 80.1884 5.07478 79.279 5.17918C78.3816 5.29572 77.2648 5.65989 76.5627 6.25762C75.8353 6.88109 75.4066 7.68713 75.2114 8.62282C75.0948 9.19433 75.107 9.88335 75.3027 10.4418C75.5756 11.2085 76.03 11.949 76.6283 12.4952C77.2648 13.0672 78.0573 13.3658 78.8104 13.7557C79.0969 13.8985 79.2911 13.9378 79.4344 14.0937C79.8374 14.5744 79.3824 15.0546 78.8624 14.9769C77.9019 14.8473 77.0056 14.4836 76.0961 14.1588Z" fill="#50A856"/>
</svg>
