<svg width="190" height="30" viewBox="0 0 190 30" fill="none" xmlns="http://www.w3.org/2000/svg">
<path fill-rule="evenodd" clip-rule="evenodd" d="M189.355 15.1528C189.355 11.2893 187.846 7.73284 184.948 5.01795C182.091 2.34065 178.199 0.810908 174.228 0.810908C170.257 0.810908 166.328 2.34065 163.468 5.01795C160.57 7.73284 159.06 11.2518 159.06 15.1528C159.06 19.5134 161.005 23.451 164.579 26.2045C167.346 28.3312 170.737 29.4891 174.227 29.5C178.198 29.5 182.007 28.0005 184.947 25.2867C187.807 22.648 189.355 19.055 189.355 15.1528ZM174.227 23.686C169.038 23.686 165.706 19.9112 165.706 15.1737C165.706 10.4738 169.19 6.62704 174.227 6.62704C179.189 6.62704 182.711 10.4738 182.711 15.1737C182.711 19.9112 179.264 23.686 174.227 23.686ZM155.321 9.13205L155.527 3.28042C153.143 2.21013 149.694 0.772278 145.992 0.772278C136.205 0.772278 130.092 7.04368 130.092 15.1132C130.092 23.3362 136.302 28.839 145.802 28.839C149.051 28.839 153.291 27.7092 155.964 26.2547L156.005 20.2506C153.497 21.9944 149.25 23.7538 145.886 23.5565C141.383 23.2913 136.55 20.7727 136.55 15.1132C136.55 9.26153 141.409 6.2574 146.567 6.60094C150.121 6.83902 153.265 7.95525 155.321 9.13205ZM106.681 26.3173C109.528 27.9003 112.456 29.1136 115.864 29.1136C122.444 29.1136 126.141 25.8224 126.141 20.8886C126.141 17.4459 123.502 14.3154 118.562 12.227C115.278 10.8383 113.025 10.7526 113.025 8.22883C113.025 6.43074 114.116 6.059 116.665 6.059C118.68 6.059 121.831 6.43805 124.986 8.43036L125.023 3.20941C122.086 1.4959 119.834 0.773321 116.296 0.773321C109.923 0.773321 106 4.17738 105.934 8.49823C105.869 12.7094 108.183 14.7675 112.503 16.8664C116.53 18.8221 119.217 18.8628 119.217 21.2718C119.217 23.4134 117.555 23.9011 114.51 23.9011C112.083 23.9011 108.381 22.2262 106.64 20.3936L106.681 26.3173ZM94.4196 28.768H100.711V1.42281H94.4196V28.768ZM59.9969 28.768H66.876V13.1647L66.6411 9.66563L68.222 12.5528L81.5866 28.768H87.7567V1.42281H81.0519V16.7212L81.1115 18.9526L79.5316 17.3331L66.5356 1.42281H59.9969V28.768ZM45.8899 18.3648H37.7473L40.9144 9.64475C41.0376 9.30017 41.3665 8.03879 41.7779 5.85957C42.1486 7.8477 42.4357 9.07253 42.6007 9.53093L45.8899 18.3648ZM27.1708 28.768H33.9225L35.9795 22.954H47.3706L49.7555 28.768H56.9113L45.56 1.42281H38.3634L27.1708 28.768ZM0.486511 28.768H8.99874C18.2784 28.768 26.8314 25.1374 26.8314 15.1528C26.8314 5.16831 20.8451 1.96579 12.8915 1.52618V7.10946C17.631 7.6044 20.3752 9.79616 20.3752 15.1142C20.3752 21.3104 16.6881 22.9968 10.2737 22.9968H6.45718V13.8925H0.486511V28.768Z" fill="#313A7F"/>
</svg>
